<svg width="1280" height="184" viewBox="0 0 1280 184" fill="none" xmlns="http://www.w3.org/2000/svg">
<g clip-path="url(#clip0_2005_11475)">
<path d="M323.384 42.0269C324.955 41.8669 328.433 42.1439 330.151 42.3003C342.682 43.4537 357.165 46.0793 367.399 53.8257C383.965 66.3654 391.243 95.0426 377.88 112.227C367.425 125.671 346.753 127.372 330.981 129.366L330.953 142.522C330.993 152.091 332.469 167.887 327.15 176.052C322.253 183.569 307.589 181.069 306.81 170.886C305.54 154.309 306.087 137.301 306.081 120.611L306.086 81.1784C306.092 73.7759 305.871 66.313 306.31 58.9238C307.156 44.6812 310.55 43.637 323.384 42.0269ZM331.072 106.149C339.076 105.326 347.605 104.51 354.399 99.7761C360.926 94.3752 363.161 85.6624 357.033 78.9772C350.093 71.4077 340.765 70.2444 331.105 69.4735L331.072 106.149Z" fill="white"></path>
<path d="M820.632 50.0301C846.757 46.6259 862.936 65.3569 865.679 88.3245C866.409 94.419 873.169 105.482 875.368 112.001C878.435 121.072 881.665 134.191 866.778 133.043C861.231 132.444 856.683 125.006 853.753 120.754C851.585 123.532 849.443 125.315 846.832 127.619C835.431 137.065 810.749 135.852 798.824 127.781C779.739 114.87 779.964 85.0649 791.771 67.2213C798.974 56.3343 808.438 52.4514 820.632 50.0301ZM826.966 112.724C848.918 107.66 851.123 69.5016 821.007 71.8893C817.346 73.0993 815.184 73.7423 812.105 76.1443C801.791 84.1917 801.766 104.612 814.597 110.299C818.664 112.102 822.55 112.473 826.966 112.724Z" fill="white"></path>
<path d="M478.259 50.0171C482.442 49.5602 486.667 49.6748 490.819 50.3578C515.546 54.4213 519.865 72.9812 524.923 93.3029C527.331 102.976 537.517 114.77 535.568 126.109C535.209 128.202 534.215 130.326 532.349 131.521C522.085 137.427 515.958 127.309 511.415 120.599C509.548 122.915 508.432 124.114 506.273 126.165C502.389 129.82 498.082 132.094 492.734 133.155C448.788 141.877 428.929 103.538 449.211 67.6876C455.355 56.8273 466.495 52.4949 478.259 50.0171ZM485.239 112.676C490.969 111.151 494.803 108.581 497.803 103.324C502.986 94.2429 502.188 79.448 492.175 73.8975C487.431 71.236 483.769 71.5535 478.658 71.8984C474.971 73.1814 472.634 73.8975 469.557 76.3942C459.412 84.6262 459.645 104.911 472.567 110.434C476.821 112.252 480.653 112.531 485.239 112.676Z" fill="white"></path>
<path d="M679.387 45.1597C706.105 45.8133 731.33 66.3504 717.837 93.3423C712.596 103.826 665.312 95.4031 661.77 99.864C661.72 100.275 661.739 100.69 661.814 101.096C662.301 103.786 667.405 109.726 669.56 110.641C682.429 116.093 694.686 111.737 707.279 108.769C712.339 107.575 714.526 108.173 718.312 110.678C725.858 126.688 701.401 133.18 690.1 134.26C664.575 136.701 641.518 126.666 639.819 97.9335C638.182 70.2456 648.908 47.8049 679.387 45.1597ZM663.363 79.9483L685.603 79.9727C688.314 80.0201 699.452 80.6163 701.22 79.4169C700.32 69.905 690.563 64.0495 681.448 64.9283C681.161 64.9564 680.874 64.9888 680.586 65.0256C670.504 67.4675 667.174 69.9275 663.363 79.9483Z" fill="white"></path>
<path d="M922.88 8.88611C930.002 8.31627 946.225 8.95691 946.35 20.2986C946.519 35.3627 933.537 27.7244 926.866 33.0732C923.68 35.6252 924.592 48.0497 924.648 52.3312C933.044 52.8972 950.885 52.711 941.465 68.0924C939.366 71.5129 929.083 71.385 924.86 71.6982C924.411 84.5513 926.516 121.122 922.468 130.471C918.663 137.396 909.824 137.407 904.914 132.779C900.672 128.786 901.853 111.324 901.878 105.726L902.053 70.9434C897.236 70.7507 889.328 71.2042 885.898 67.9976C884.493 66.6965 883.687 64.8764 883.662 62.9628C883.506 53.0477 894.575 52.5198 901.503 52.4165C901.722 42.1749 901.06 26.4145 906.501 17.819C910.605 11.3321 916.108 10.3894 922.88 8.88611Z" fill="white"></path>
<path d="M590.351 48.8107C601.105 48.1306 622.814 53.829 623.826 64.5166C626.108 88.6636 602.419 72.97 596.928 71.6065C572.283 66.0085 565.281 107.334 590.268 112.636C603.999 115.549 616.809 101.076 623.773 111.844C623.916 112.372 624.043 112.903 624.151 113.438C626.601 125.604 613.407 131.985 603.441 133.97C592.186 136.212 578.611 134.191 569.006 127.798C548.4 114.081 546.582 85.0747 559.364 65.4721C566.239 54.9047 578.547 51.0817 590.351 48.8107Z" fill="white"></path>
<path d="M1135.24 48.7957C1139.56 48.4717 1143.92 48.8203 1148.13 49.829C1156.17 51.7069 1177.62 61.6274 1165.18 76.9277C1158.66 81.7747 1146.24 71.7376 1142.17 71.3709C1106.6 68.1661 1114.5 127.134 1151.47 110.551C1158.18 107.539 1163.49 104.465 1168.43 112.129C1168.64 112.789 1168.81 113.463 1168.93 114.144C1171 125.414 1157.32 132.46 1148.11 133.991C1136.31 135.951 1122.52 134.064 1112.59 127.123C1092.7 113.228 1091.5 84.1673 1104.25 65.1199C1111.03 54.9807 1123.66 50.7762 1135.24 48.7957Z" fill="white"></path>
<path d="M972.164 38.8006C984.252 38.2524 986.907 42.0454 987.712 53.6062C996.433 45.1001 1007.65 42.6781 1019.65 44.9366C1025.93 46.1179 1033.23 49.2721 1036.98 54.7246C1039.47 57.2806 1040.76 67.8786 1036.43 69.2876C1023.68 73.4397 1010.97 60.3615 997.352 70.6242C994.041 73.1179 989.174 76.7468 988.387 80.8054L988.356 80.9806C988.387 92.2832 990.049 121.306 985.62 130.119C979.273 142.744 962.319 139.864 962.256 121.507C961.869 99.3463 961.7 77.0468 962.225 54.8902C962.419 46.7397 963.887 41.2393 972.164 38.8006Z" fill="white"></path>
<path d="M1066.09 40.6172C1068.77 40.6579 1071.65 40.8278 1074.11 42.0313C1075.82 42.8718 1076.76 43.9399 1077.38 45.7229C1080.92 55.8299 1080.83 120.614 1076.66 129.188C1075.24 132.09 1072.55 133.551 1069.63 134.571C1067.64 134.485 1065.66 134.376 1063.77 133.695C1061.19 132.765 1059.34 130.707 1058.22 128.261C1054.36 119.864 1054.52 68.048 1055.55 56.5992C1055.96 52.102 1056.8 48.0986 1058.4 43.869C1061.36 41.9432 1062.66 41.3471 1066.09 40.6172Z" fill="white"></path>
<path d="M1064.58 1.36172C1070.33 0.867981 1076.12 3.21691 1079.09 8.34325C1080.47 10.7142 1080.84 13.5399 1080.12 16.186C1078.98 20.326 1076.07 22.0802 1072.57 24.0574C1057.14 27.978 1050.67 7.0298 1064.58 1.36172Z" fill="white"></path>
<path d="M0 40.0522C9.02022 3.23652 28.7788 2.82971 60.8672 2.90173L103.624 3.00378C91.2398 12.6309 84.1964 25.981 82.2836 41.4172C80.7293 53.5754 84.0939 65.8509 91.6327 75.5237C99.1722 85.1123 110.211 91.3265 122.33 92.806C132.522 94.1008 142.809 91.2628 150.889 84.927C166.093 72.9745 171.113 51.5949 158.584 35.2522C154.089 29.3893 140.061 20.4684 131.144 24.8972C130.019 25.4558 128.063 28.2627 127.769 29.6128C129.647 37.5968 150.048 34.2315 153.198 49.0451C158.866 75.6952 130.768 89.2669 109.566 76.1362C101.865 71.3385 96.3767 63.6928 94.3027 54.8683C91.8101 44.1451 94.7231 32.0524 100.534 22.8205C106.753 12.9399 116.384 6.64623 127.708 4.09738C136.348 2.15237 184.532 2.10501 193.84 3.59817C199.409 4.4431 204.746 6.41558 209.525 9.39444C218.671 15.2692 225.167 24.4683 227.638 35.043C230.143 46.2148 229.372 64.087 229.241 76.0251C228.851 111.674 229.796 147.632 229.169 183.242C216.296 180.582 206.686 175.887 199.13 164.369C196.735 160.683 194.994 156.613 193.985 152.336C192.524 146.007 194.036 137.745 187.457 135.12C173.894 136.532 185.803 173.386 179.059 181.697C178.277 182.662 176.541 183.454 175.417 184H149.426C147.958 183.161 145.637 181.592 145.203 180.022C141.24 172.449 147.028 144.171 143.286 138.419C136.72 128.325 131.957 141.54 132.775 150.163C133.612 158.99 132.789 170.425 132.364 179.235C132.265 181.302 129.454 183.043 127.796 184H101.255C89.595 177.675 101.602 145.515 93.6567 136.168C93.3338 135.788 92.4623 135.032 91.9463 134.986C89.9111 134.803 88.4112 135.717 86.9038 136.985C86.1104 137.653 85.2596 138.44 85.0078 139.479C83.1306 147.235 85.1122 170.182 84.2707 180.417L79.6149 184H53.1766C48.9748 181.363 47.8867 179.303 47.6027 174.285C46.9323 162.442 49.2456 149.439 46.789 137.903C46.5559 136.809 40.3419 134.158 39.2643 135.941C35.7136 139.347 36.8265 145.219 36.2513 149.397C34.9111 159.135 40.2768 177.627 31.7346 184H0V40.0522ZM199.574 56.9193C206.014 56.443 210.873 50.8848 210.476 44.4494C210.079 38.014 204.572 33.094 198.122 33.4112C193.878 33.6199 190.075 36.0913 188.166 39.8811C186.256 43.6708 186.535 48.1931 188.896 51.7198C191.258 55.2466 195.336 57.2328 199.574 56.9193Z" fill="#FE1A00"></path>
<path d="M1254.67 120.929C1250.23 125.82 1245.45 130.147 1238.97 132.3C1228.59 135.66 1212.88 134.545 1203.04 129.772C1182.1 119.34 1180.85 90.1225 1190.06 71.6171C1205.28 40.9607 1253.96 42.3601 1263.59 76.7186C1264.98 81.6635 1266.54 89.2 1268.4 93.7564C1272.23 103.113 1276.16 111.671 1279.37 121.32V123.884C1273.28 142.297 1261.56 130.836 1254.67 120.929ZM1209.75 106.87C1215.69 111.146 1220.85 112.285 1228.01 112.713C1233.57 111.359 1237.61 108.801 1240.64 103.835C1243.96 98.3919 1245 91.3712 1243.49 85.1882C1242.36 80.5608 1239.74 76.5571 1235.63 74.0684C1231.33 71.4737 1226.91 71.551 1222.07 71.8573C1204.56 77.318 1201.97 91.6794 1209.75 106.87Z" fill="white"></path>
<path d="M410.169 0H415.303L421.584 2.92095C422.565 4.44793 423.489 6.198 424.094 7.90988C427.928 18.7512 425.863 74.7395 425.787 91.0101C425.745 100.257 426.423 109.767 425.777 118.97C425.553 122.148 425.048 125.516 423.663 128.418C422.437 130.987 420.726 132.701 418.014 133.659C414.341 134.957 409.859 134.956 406.316 133.249C404.302 132.278 402.258 130.487 401.537 128.322C398.915 120.454 399.403 28.4396 400.182 15.1078C400.372 11.8548 400.482 8.26216 401.947 5.30266C403.628 1.90297 406.844 1.14457 410.169 0Z" fill="white"></path>
</g>
<defs>
<clipPath id="clip0_2005_11475">
<rect width="1279.38" height="184" fill="white"></rect>
</clipPath>
</defs>
</svg>